<svg width="1692" height="1846" viewBox="0 0 1692 1846" fill="none" xmlns="http://www.w3.org/2000/svg">
<path d="M1215.06 0.0927734C1487.06 0.0928083 1688.9 201.886 1688.9 473.831C1688.9 506.438 1685.64 538.208 1679.58 569.045H1112.05L1242.52 412.063H1492.93C1464.42 274.461 1361.17 189.682 1215.06 189.682C1133.15 189.682 1072.86 205.893 1002.41 274.182L950.122 334.179L884.158 416.585H1090.18L661.483 941.544L624.739 986.961H493.03L461.728 926.809L0 38.7539H213.642L583.627 753.175L746.266 548.315H542.296L864.587 153.44C953.765 63.817 1078.73 6.89809e-06 1215.15 0L1215.06 0.0927734ZM1664.42 694.351C1587.26 865.492 1415.15 984.742 1215.17 984.742C1065.61 984.742 960.977 932.516 879.281 857.987L993.947 718.409C1043.77 764.766 1125.62 795.153 1215.17 795.153C1304.72 795.153 1384.96 756.118 1440.31 694.351H1664.42Z" fill="url(#paint0_linear_631_4228)"/>
<path d="M246.273 1496.4L353.846 1199.7H279.48L205.094 1422.02H200.668L124.96 1199.7H50.1328L157.726 1496.4H246.273Z" fill="#08212B"/>
<path d="M442.211 1199.7H375.796V1496.4H442.211V1199.7Z" fill="#08212B"/>
<path d="M724.895 1199.7H467.228V1259.49H562.864V1496.4H629.279V1259.49H724.895V1199.7Z" fill="#08212B"/>
<path d="M995.422 1496.4L886.066 1199.7H789.548L680.192 1496.4H749.251L773.606 1430.43H899.345L923.259 1496.4H995.422ZM795.297 1371.09L812.121 1325.04L834.693 1258.16H839.119L860.81 1325.04L877.634 1371.09H795.277H795.297Z" fill="#08212B"/>
<path d="M1234.77 1436.62H1081.57V1199.7H1015.15V1496.4H1234.77V1436.62Z" fill="#08212B"/>
<path d="M1332 1199.7H1265.58V1496.4H1332V1199.7Z" fill="#08212B"/>
<path d="M1507.31 1500.83C1594.97 1500.83 1642.34 1454.78 1642.34 1381.26V1377.27H1571.5V1379.5C1571.5 1422.02 1553.79 1436.62 1506.87 1436.62C1456.84 1436.62 1436.03 1418.45 1436.03 1348.05C1436.03 1277.65 1456.84 1259.49 1506.87 1259.49C1553.79 1259.49 1571.5 1274.11 1571.5 1316.61V1318.83H1642.34V1314.84C1642.34 1241.34 1596.29 1195.27 1507.31 1195.27C1418.32 1195.27 1365.18 1255.5 1365.18 1348.05C1365.18 1440.6 1419.64 1500.83 1507.31 1500.83Z" fill="#08212B"/>
<path d="M44.207 1841.5H270.43V1781.71H110.602V1721.93H263.8V1662.6H110.602V1604.58H270.43V1544.79H44.207V1841.5Z" fill="#08212B"/>
<path d="M501.75 1694.56L502.631 1734.42H498.205L473.41 1694.56L377.333 1545.77H306.492V1842.47H372.906V1702.09L372.025 1656.49H376.451L405.233 1702.09L497.304 1842.47H568.145V1545.77H501.75V1694.56Z" fill="#08212B"/>
<path d="M604.022 1841.5H830.265V1781.71H670.417V1721.93H823.616V1662.6H670.417V1604.58H830.265V1544.79H604.022V1841.5Z" fill="#08212B"/>
<path d="M1035.01 1721.04V1716.62C1085.92 1712.19 1109.84 1683.41 1109.84 1635.14C1109.84 1577.58 1070.44 1544.81 999.6 1544.81H863.225V1841.52H929.64V1736.13H956.198C987.643 1736.13 996.495 1747.2 1009.77 1772.88L1044.74 1841.52H1122.21L1084.58 1767.11C1073.06 1744.52 1060.67 1729.02 1034.99 1721.06L1035.01 1721.04ZM1002.68 1681.19H929.64V1604.58H1002.68C1033.67 1604.58 1043.86 1613.43 1043.86 1642.65C1043.86 1671.87 1033.69 1681.19 1002.68 1681.19Z" fill="#08212B"/>
<path d="M1267.27 1739.21H1348.28C1347.4 1743.49 1346.3 1747.36 1345.02 1750.86C1338.25 1771.37 1324.69 1780.59 1290.42 1782.09L1290.26 1782.41C1287.13 1782.53 1283.91 1782.59 1280.52 1782.59C1224.75 1782.59 1202.15 1763.1 1202.15 1693.14C1202.15 1623.18 1223.4 1604.57 1274.32 1604.57C1322.56 1604.57 1340.73 1617.41 1340.73 1654.63V1656.39H1411.13V1654.17C1411.13 1583.77 1365.97 1540.36 1275.66 1540.36C1185.35 1540.36 1131.33 1600.59 1131.33 1693.14C1131.33 1785.69 1174.29 1841.39 1253.17 1845.66L1253.31 1845.78H1253.77C1254.43 1845.78 1255.09 1845.78 1255.79 1845.78C1257.35 1845.84 1258.93 1845.86 1260.52 1845.88C1260.66 1845.9 1261.24 1845.9 1262.14 1845.92C1262.38 1845.92 1262.6 1845.92 1262.84 1845.92C1263.08 1845.92 1263.28 1845.92 1263.5 1845.92C1271.53 1845.92 1292.88 1845.92 1293.82 1845.92C1296.21 1845.92 1298.55 1845.88 1300.85 1845.78C1301.55 1845.78 1302.24 1845.78 1302.88 1845.78H1303.34L1303.48 1845.66C1366.11 1841.49 1406.24 1803.08 1412.01 1758.19V1683.83H1267.23V1739.19L1267.27 1739.21Z" fill="#08212B"/>
<path d="M1617.91 1544.79L1571.43 1622.74L1546.17 1666.59H1541.76L1516.07 1622.74L1469.58 1544.79H1394.31L1509.88 1734.32V1841.5H1576.29V1734.32L1691.84 1544.79H1617.91Z" fill="#08212B"/>
<defs>
<linearGradient id="paint0_linear_631_4228" x1="0" y1="493.48" x2="1688.9" y2="493.48" gradientUnits="userSpaceOnUse">
<stop stop-color="#08E6A7"/>
<stop offset="0.447115" stop-color="#1071E0"/>
<stop offset="0.692308" stop-color="#1861E5"/>
<stop offset="1" stop-color="#636AFC"/>
</linearGradient>
</defs>
</svg>
